#define squarefw_width 4
#define squarefw_height 14
static unsigned char squarefw_bits[] = {
   0x0f, 0x0f, 0x0f, 0x0f, 0x00, 0x00, 0x00, 0x00, 0x00, 0x00, 0x00, 0x00,
   0x00, 0x00 };
