#define squarew_width 4
#define squarew_height 14
static unsigned char squarew_bits[] = {
   0x0f, 0x09, 0x09, 0x0f, 0x00, 0x00, 0x00, 0x00, 0x00, 0x00, 0x00, 0x00,
   0x00, 0x00 };
